<svg id="ac" xmlns="http://www.w3.org/2000/svg" viewBox="0 0 512 512"><line x1="256" y1="255.6" x2="256" y2="15" fill="#fff" stroke="#15B7ED" stroke-linecap="round" stroke-linejoin="round" stroke-width="28"/><polyline points="256 255.6 256 144 309 109" fill="none" stroke="#15B7ED" stroke-linecap="round" stroke-linejoin="round" stroke-width="28"/><polyline points="256 255.6 256 144 203 109" fill="none" stroke="#15B7ED" stroke-linecap="round" stroke-linejoin="round" stroke-width="28"/><polyline points="256 255.6 256 67.1 309 32.1" fill="none" stroke="#15B7ED" stroke-linecap="round" stroke-linejoin="round" stroke-width="28"/><polyline points="256 255.6 256 67.1 203 32.1" fill="none" stroke="#15B7ED" stroke-linecap="round" stroke-linejoin="round" stroke-width="28"/><line x1="256" y1="255.6" x2="256" y2="496.2" fill="#fff" stroke="#15B7ED" stroke-linecap="round" stroke-linejoin="round" stroke-width="28"/><polyline points="256 255.6 256 367.2 309 402.2" fill="none" stroke="#15B7ED" stroke-linecap="round" stroke-linejoin="round" stroke-width="28"/><polyline points="256 255.6 256 367.2 203 402.2" fill="none" stroke="#15B7ED" stroke-linecap="round" stroke-linejoin="round" stroke-width="28"/><polyline points="256 255.6 256 444.1 309 479.1" fill="none" stroke="#15B7ED" stroke-linecap="round" stroke-linejoin="round" stroke-width="28"/><polyline points="256 255.6 256 444.1 203 479.1" fill="none" stroke="#15B7ED" stroke-linecap="round" stroke-linejoin="round" stroke-width="28"/><line x1="256" y1="255.6" x2="46.7" y2="137" fill="#fff" stroke="#15B7ED" stroke-linecap="round" stroke-linejoin="round" stroke-width="28"/><polyline points="256 255.6 158.9 200.6 154.6 137.2" fill="none" stroke="#15B7ED" stroke-linecap="round" stroke-linejoin="round" stroke-width="28"/><polyline points="256 255.6 158.9 200.6 102.3 229.4" fill="none" stroke="#15B7ED" stroke-linecap="round" stroke-linejoin="round" stroke-width="28"/><polyline points="256 255.6 92 162.7 87.6 99.3" fill="none" stroke="#15B7ED" stroke-linecap="round" stroke-linejoin="round" stroke-width="28"/><polyline points="256 255.6 92 162.7 35.4 191.5" fill="none" stroke="#15B7ED" stroke-linecap="round" stroke-linejoin="round" stroke-width="28"/><line x1="256" y1="255.6" x2="465.3" y2="374.2" fill="#fff" stroke="#15B7ED" stroke-linecap="round" stroke-linejoin="round" stroke-width="28"/><polyline points="256 255.6 353.1 310.6 409.7 281.8" fill="none" stroke="#15B7ED" stroke-linecap="round" stroke-linejoin="round" stroke-width="28"/><polyline points="256 255.6 353.1 310.6 357.4 374" fill="none" stroke="#15B7ED" stroke-linecap="round" stroke-linejoin="round" stroke-width="28"/><polyline points="256 255.6 420 348.5 476.6 319.7" fill="none" stroke="#15B7ED" stroke-linecap="round" stroke-linejoin="round" stroke-width="28"/><polyline points="256 255.6 420 348.5 424.4 411.9" fill="none" stroke="#15B7ED" stroke-linecap="round" stroke-linejoin="round" stroke-width="28"/><line x1="256" y1="255.6" x2="465.3" y2="137" fill="#fff" stroke="#15B7ED" stroke-linecap="round" stroke-linejoin="round" stroke-width="28"/><polyline points="256 255.6 353.1 200.6 357.4 137.2" fill="none" stroke="#15B7ED" stroke-linecap="round" stroke-linejoin="round" stroke-width="28"/><polyline points="256 255.6 353.1 200.6 409.7 229.4" fill="none" stroke="#15B7ED" stroke-linecap="round" stroke-linejoin="round" stroke-width="28"/><polyline points="256 255.6 420 162.7 424.4 99.3" fill="none" stroke="#15B7ED" stroke-linecap="round" stroke-linejoin="round" stroke-width="28"/><polyline points="256 255.6 420 162.7 476.6 191.5" fill="none" stroke="#15B7ED" stroke-linecap="round" stroke-linejoin="round" stroke-width="28"/><line x1="256" y1="255.6" x2="46.7" y2="374.2" fill="#fff" stroke="#15B7ED" stroke-linecap="round" stroke-linejoin="round" stroke-width="28"/><polyline points="256 255.6 158.9 310.6 102.3 281.8" fill="none" stroke="#15B7ED" stroke-linecap="round" stroke-linejoin="round" stroke-width="28"/><polyline points="256 255.6 158.9 310.6 154.6 374" fill="none" stroke="#15B7ED" stroke-linecap="round" stroke-linejoin="round" stroke-width="28"/><polyline points="256 255.6 92 348.5 35.4 319.7" fill="none" stroke="#15B7ED" stroke-linecap="round" stroke-linejoin="round" stroke-width="28"/><polyline points="256 255.6 92 348.5 87.6 411.9" fill="none" stroke="#15B7ED" stroke-linecap="round" stroke-linejoin="round" stroke-width="28"/></svg>