<svg id="Layer_2" data-name="Layer 2" xmlns="http://www.w3.org/2000/svg" viewBox="0 0 512 512"><path d="M256.1,491.4c-240.8,0-184.4-298.1-130.2-321-7.5,46.3,18.3,94.5,28.6,97.4s29.2,6.9,17.1-56.4c-17.1-87.9,27.6-92.7,62.5-123.9s21.2-44.9,7.2-68.5c76.8,16.6,39,88.2,54.1,141.8s58.9,34.9,68.5,10.8,0-48.1,0-48.1c89.3,38.5,133,367.8-107.7,367.9" fill="none" stroke="#F56530" stroke-linecap="round" stroke-linejoin="round" stroke-width="28"/><path d="M258.8,491.3c-86.9-1.1-138.3-76.2-92.6-161.5,8.1,64.7,108.4,80.7,76.1,14s-44.8-102.5,13.2-155.3c0,0-25.5,29.7,59.5,114.1s34,188.8-54.1,188.8h-.7" fill="none" stroke="#F56530" stroke-linecap="round" stroke-linejoin="round" stroke-width="28"/></svg>