<svg id="Layer_2" data-name="Layer 2" xmlns="http://www.w3.org/2000/svg" viewBox="0 0 512 512"><path d="M256.1,500.2C8.8,500.2,66.7,194,122.4,170.5c-7.8,47.6,18.8,97.1,29.4,100s30,7.2,17.5-57.9c-17.5-90.2,28.4-95.2,64.2-127.3s21.8-46.1,7.4-70.3c78.9,17.1,40,90.6,55.6,145.6s60.5,35.8,70.3,11.2,0-49.4,0-49.4c91.7,39.5,136.6,377.7-110.6,377.8" fill="none" stroke="#F56530" stroke-linecap="round" stroke-linejoin="round" stroke-width="28"/><path d="M258.9,500.2c-89.3-1.2-142.1-78.4-95.1-166,8.3,66.5,111.3,82.9,78.1,14.4s-46-105.3,13.5-159.5c0,0-26.1,30.5,61.2,117.2S351.5,500.2,261,500.2h-.8" fill="none" stroke="#F56530" stroke-linecap="round" stroke-linejoin="round" stroke-width="28"/></svg>