<svg id="Layer_2" data-name="Layer 2" xmlns="http://www.w3.org/2000/svg" viewBox="0 0 512 512"><path d="M256,72.1s60.7,93.3,84.9,133.7,4.3,137.6-84.8,137.6" fill="none" stroke="#15B7ED" stroke-linecap="round" stroke-linejoin="round" stroke-width="27"/><path d="M256,72.1s-60.8,93.3-85,133.7-4.3,137.6,84.8,137.6" fill="none" stroke="#15B7ED" stroke-linecap="round" stroke-linejoin="round" stroke-width="27"/><path d="M150,321.1c-43.5,7.2-71.6,18.9-71.6,32,0,22.1,79.5,40,177.6,40h-.2c98.1,0,177.6-17.9,177.6-40,0-13.1-28.1-24.8-71.6-32" fill="none" stroke="#15B7ED" stroke-linecap="round" stroke-linejoin="round" stroke-width="27"/><path d="M123.6,284.7c-64.5,14.7-107,39.9-107,68.4,0,45.4,107.2,82.1,239.4,82.1h-.2c132.3,0,239.4-36.7,239.4-82.1,0-28.5-42.5-53.7-107-68.4" fill="none" stroke="#15B7ED" stroke-linecap="round" stroke-linejoin="round" stroke-width="27"/></svg>